<?xml version="1.0" encoding="UTF-8" standalone="no"?><!DOCTYPE svg PUBLIC "-//W3C//DTD SVG 1.1//EN" "http://www.w3.org/Graphics/SVG/1.1/DTD/svg11.dtd"><svg width="1400px" height="1196px" version="1.1" xmlns="http://www.w3.org/2000/svg" xmlns:xlink="http://www.w3.org/1999/xlink" xml:space="preserve" xmlns:serif="http://www.serif.com/" style="fill-rule:evenodd;clip-rule:evenodd;stroke-linejoin:round;stroke-miterlimit:2;"><g><path id="gird" d="M0,0l1379.15,16.697l20.85,-10.703l-19.617,11.41l19.617,11.41l0,1.431l-20.85,-12.124l-87.976,51.178l85.534,49.747l23.292,-13.545l0,1.43l-22.058,12.832l22.058,12.831l0,1.396l-23.292,-13.545l-85.534,49.75l87.976,51.18l20.85,-12.125l0,1.443l-19.617,11.409l19.617,11.411l0,1.392l-20.85,-12.123l-87.976,51.172l85.534,49.753l23.292,-13.546l0,1.463l-22.058,12.83l22.058,12.831l0,1.382l-23.292,-13.546l-85.534,49.755l87.976,51.175l20.85,-12.125l0,1.459l-19.617,11.411l19.617,11.411l0,1.384l-20.85,-12.126l-87.976,51.183l85.534,49.752l23.292,-13.545l0,1.449l-22.058,12.834l22.058,12.83l0,1.384l-23.292,-13.545l-85.534,49.763l87.976,51.169l20.85,-12.125l0,1.467l-19.617,11.411l19.617,11.409l0,1.393l-20.85,-12.125l-87.976,51.159l85.534,49.755l23.292,-13.54l0,1.457l-22.058,12.831l22.058,12.829l0,1.397l-23.292,-13.541l-85.534,49.752l87.976,51.172l20.85,-12.127l0,1.455l-19.617,11.41l19.617,11.409l0,1.391l-20.85,-12.121l-87.976,51.155l85.534,49.765l23.292,-13.547l0,1.461l-22.058,12.826l22.058,12.831l0,1.399l-23.292,-13.543l-85.534,49.747l87.976,51.18l20.85,-12.126l0,1.457l-19.617,11.411l19.617,11.413l0,1.407l-20.85,-12.125l-87.976,51.152l85.534,49.775l23.292,-13.544l0,1.436l-22.058,12.828l22.058,12.834l0,1.406l-23.292,-13.543l-85.534,49.758l-1233.12,2.139l-1.228,-0.73l-56.829,-33.043l-0,-1.42l58.04,33.759l88.001,-51.183l-88.001,-51.167l-58.04,33.75l-0,-1.395l56.844,-33.052l-56.844,-33.068l-0,-1.41l58.05,33.766l85.552,-49.77l-85.56,-49.755l-58.042,33.754l-0,-1.404l56.836,-33.057l-56.836,-33.048l-0,-1.411l58.05,33.759l87.998,-51.162l-87.991,-51.17l-58.057,33.752l-0,-1.426l56.836,-33.063l-56.836,-33.042l-0,-1.402l58.047,33.751l85.56,-49.747l-85.56,-49.747l-58.047,33.751l-0,-1.415l56.836,-33.071l-56.836,-33.045l-0,-1.408l58.055,33.755l87.993,-51.167l-87.993,-51.174l-58.055,33.76l-0,-1.441l56.836,-33.044l-56.836,-33.052l-0,-1.404l58.05,33.754l85.559,-49.748l-85.559,-49.755l-58.05,33.758l-0,-1.433l56.836,-33.06l-56.836,-33.054l-0,-1.401l58.057,33.763l87.999,-51.172l-87.999,-51.17l-58.057,33.761l-0,-1.425l56.836,-33.073l-56.836,-33.042l-0,-1.396l58.05,33.758l85.559,-49.755l-85.559,-49.752l-58.05,33.756l-0,-1.438l56.836,-33.051l-56.836,-33.052l-0,-1.402l58.057,33.765l87.999,-51.175l-87.999,-51.172l-58.057,33.763l-0,-1.444l56.836,-33.054l-56.836,-33.049l-0,-1.413l58.042,33.752l85.56,-49.752l-85.56,-49.748l-58.042,33.749l-0,-1.402l56.836,-33.059l-56.836,-33.054l-0,-1.383l58.057,33.762l88.001,-51.172l-88.001,-51.177l-58.057,33.766l-0,-1.415l56.844,-33.056l-56.844,-33.056l-0,-1.432l58.057,33.761l85.56,-49.753l-143.617,-15.984l-0,-1.412Zm1203.17,1143.91l-88.002,51.172l173.561,-1.409l-85.559,-49.763Zm-178.419,0.005l-85.56,49.758l173.536,1.409l-87.976,-51.167Zm-525.52,-0.005l-87.997,51.172l173.538,-1.409l-85.541,-49.763Zm173.535,0l-85.542,49.763l173.548,1.409l-88.006,-51.172Zm-351.974,0.01l-85.56,49.753l173.551,1.409l-87.991,-51.162Zm-173.538,-0.01l-87.989,51.172l173.538,-1.409l-85.549,-49.763Zm703.939,0l-87.987,51.172l173.544,-1.409l-85.557,-49.763Zm350.768,-0.717l-88.001,-51.165l-88.001,51.165l88.001,51.185l88.001,-51.185Zm-703.959,0.002l-87.976,-51.157l-88.001,51.168l87.996,51.172l87.981,-51.183Zm351.975,-0.002l-87.996,-51.17l-87.981,51.18l87.986,51.175l87.991,-51.185Zm525.52,0.002l-85.56,-49.749l-85.534,49.749l85.534,49.773l85.56,-49.773Zm-703.942,0l-85.557,-49.749l-85.557,49.749l85.557,49.773l85.557,-49.773Zm-351.987,0l-85.549,-49.749l-85.542,49.749l85.542,49.773l85.549,-49.773Zm703.949,0l-85.534,-49.749l-85.562,49.749l85.562,49.773l85.534,-49.773Zm3.675,-101.626l-88.001,51.164l85.56,49.765l87.976,-51.167l-85.535,-49.762Zm-703.944,-0.013l-88.003,51.162l85.569,49.78l87.986,-51.167l-85.552,-49.775Zm173.541,0.013l-85.555,49.755l88.002,51.174l85.541,-49.762l-87.988,-51.167Zm178.421,-0l-87.986,51.162l85.55,49.767l87.998,-51.167l-85.562,-49.762Zm173.538,-0.013l-85.544,49.755l87.996,51.187l85.575,-49.76l-88.027,-51.182Zm-703.934,0.013l-85.539,49.755l87.996,51.174l85.55,-49.762l-88.007,-51.167Zm1055.91,-0.003l-85.56,49.755l88.002,51.177l85.559,-49.76l-88.001,-51.172Zm-878.703,-0.717l-87.994,-51.17l-87.983,51.18l87.988,51.167l87.989,-51.177Zm967.912,-51.17l-87.976,51.17l87.976,51.169l88.002,-51.169l-88.002,-51.17Zm-615.937,51.17l-88.002,-51.17l-88.001,51.17l88.001,51.167l88.002,-51.167Zm351.959,-0l-87.976,-51.17l-88.004,51.17l88.004,51.167l87.976,-51.167Zm-178.429,0.01l-85.552,-49.753l-85.532,49.763l85.542,49.76l85.542,-49.77Zm-351.97,-0.01l-85.534,-49.748l-85.552,49.758l85.552,49.76l85.534,-49.77Zm703.96,0.002l-85.56,-49.755l-85.559,49.755l85.559,49.763l85.56,-49.763Zm-174.769,-101.611l-85.56,49.747l88.001,51.18l85.535,-49.76l-87.976,-51.167Zm-703.939,-0l-85.562,49.747l88.006,51.18l85.544,-49.76l-87.988,-51.167Zm794.356,51.167l85.56,49.76l88.001,-51.18l-85.559,-49.747l-88.002,51.167Zm-263.968,-51.167l-87.986,51.167l85.542,49.76l87.994,-51.18l-85.55,-49.747Zm-351.964,-0.003l-87.997,51.167l85.552,49.758l87.986,-51.178l-85.541,-49.747Zm-351.97,0l-87.986,51.167l85.534,49.748l87.999,-51.178l-85.547,-49.737Zm525.505,0l-85.539,49.737l87.986,51.178l85.554,-49.758l-88.001,-51.157Zm529.19,-0.72l-88.001,-51.154l-88.001,51.154l88.001,51.177l88.001,-51.177Zm-351.979,0l-87.994,-51.159l-87.986,51.159l87.986,51.175l87.994,-51.175Zm-351.975,0.01l-87.981,-51.169l-88.001,51.159l87.996,51.172l87.986,-51.162Zm-178.424,-0.002l-85.547,-49.76l-85.542,49.752l85.542,49.765l85.547,-49.757Zm703.934,-0l-85.534,-49.76l-85.557,49.752l85.557,49.765l85.534,-49.757Zm-351.957,0.002l-85.554,-49.762l-85.557,49.752l85.557,49.765l85.554,-49.755Zm532.843,-0.022l85.534,49.765l85.56,-49.765l-85.56,-49.74l-85.534,49.74Zm-89.235,-51.862l88.002,51.179l85.559,-49.765l-88.001,-51.159l-85.56,49.745Zm-266.412,-49.753l-85.539,49.743l87.988,51.179l85.545,-49.765l-87.994,-51.157Zm-351.955,0l-85.554,49.745l87.999,51.175l85.542,-49.765l-87.987,-51.155Zm-351.974,0l-85.539,49.745l87.986,51.175l85.552,-49.765l-87.999,-51.155Zm178.434,-0.005l-88.004,51.155l85.565,49.765l87.986,-51.177l-85.547,-49.743Zm703.931,0l-88.001,51.155l85.56,49.765l87.976,-51.182l-85.535,-49.738Zm-351.969,0l-87.986,51.155l85.542,49.765l87.993,-51.182l-85.549,-49.738Zm-353.185,-0.717l-88.002,-51.162l-87.988,51.162l87.988,51.177l88.002,-51.177Zm351.974,-0l-88.001,-51.162l-88.001,51.162l88.001,51.177l88.001,-51.177Zm351.947,-0.003l-87.976,-51.167l-88.004,51.157l88.004,51.178l87.976,-51.168Zm175.977,-0.01l88.001,51.178l88.002,-51.178l-88.002,-51.167l-88.001,51.167Zm-706.363,0.013l-85.547,-49.747l-85.552,49.747l85.552,49.747l85.547,-49.747Zm351.97,-0l-85.552,-49.747l-85.545,49.747l85.542,49.747l85.555,-49.747Zm180.858,-0l85.559,49.747l85.56,-49.747l-85.56,-49.747l-85.559,49.747Zm86.767,-50.452l85.56,49.762l88.001,-51.174l-85.559,-49.75l-88.002,51.162Zm-442.402,-51.18l-85.534,49.765l87.986,51.175l85.554,-49.775l-88.006,-51.165Zm-351.959,0l-85.555,49.765l88.006,51.17l85.545,-49.763l-87.996,-51.172Zm530.388,0.005l-87.986,51.16l85.539,49.762l88.002,-51.174l-85.555,-49.748Zm-351.964,-0.007l-87.997,51.162l85.552,49.76l87.994,-51.155l-85.549,-49.767Zm-266.405,49.747l-85.55,-49.757l-87.988,51.164l85.526,49.765l88.012,-51.172Zm706.365,0l88.001,51.17l85.535,-49.76l-87.976,-51.165l-85.56,49.755Zm-441.189,-50.457l-87.976,-51.167l-88.001,51.169l87.994,51.172l87.983,-51.174Zm527.957,-0.003l88.001,51.167l88.001,-51.167l-88.001,-51.174l-88.001,51.174Zm-175.982,-0.002l-87.994,-51.175l-87.986,51.175l87.986,51.167l87.994,-51.167Zm439.986,-49.732l-85.56,49.744l85.56,49.755l85.534,-49.755l-85.534,-49.744Zm-266.446,49.742l-85.534,-49.745l-85.557,49.747l85.557,49.753l85.534,-49.755Zm-703.939,-0.01l-85.549,-49.75l-85.542,49.75l85.542,49.747l85.549,-49.747Zm351.982,-0l-85.557,-49.75l-85.557,49.75l85.557,49.747l85.557,-49.747Zm-84.328,-50.45l85.542,49.753l87.998,-51.17l-85.552,-49.755l-87.988,51.172Zm439.96,-51.18l-88.001,51.173l85.56,49.754l87.976,-51.159l-85.535,-49.768Zm87.976,49.763l88.002,51.162l85.559,-49.757l-88.001,-51.157l-85.56,49.752Zm-703.929,0.01l87.997,51.149l85.544,-49.749l-87.986,-51.165l-85.555,49.765Zm-178.413,1.379l-88.012,-51.144l-85.539,49.75l87.989,51.159l85.562,-49.765Zm2.424,0.005l85.564,49.758l87.986,-51.162l-85.547,-49.753l-88.003,51.157Zm527.961,-1.407l87.989,51.162l85.55,-49.757l-87.999,-51.157l-85.54,49.752Zm-265.214,-50.447l88.004,51.16l87.999,-51.16l-87.999,-51.179l-88.004,51.179Zm791.966,-51.184l-87.976,51.174l87.976,51.165l87.976,-51.165l-87.976,-51.174Zm-439.984,51.172l88.004,51.164l87.976,-51.164l-87.976,-51.18l-88.004,51.18Zm-527.954,0.002l-87.996,-51.179l-87.979,51.179l87.986,51.16l87.989,-51.16Zm2.449,0.01l85.552,49.748l85.54,-49.748l-85.54,-49.765l-85.552,49.765Zm351.97,-0.012l85.542,49.752l85.552,-49.752l-85.552,-49.75l-85.542,49.75Zm351.957,0.002l85.559,49.748l85.56,-49.748l-85.56,-49.755l-85.559,49.755Zm-531.607,-0.707l87.986,-51.172l-85.544,-49.763l-87.997,51.177l85.555,49.758Zm618.374,-49.763l85.56,49.755l88.001,-51.167l-85.559,-49.757l-88.002,51.169Zm-266.417,49.753l87.999,-51.167l-85.55,-49.758l-87.989,51.172l85.54,49.753Zm-615.925,-51.182l-85.55,-49.753l-87.988,51.177l85.526,49.758l88.012,-51.182Zm794.366,51.177l85.535,-49.755l-87.976,-51.177l-85.56,49.762l88.001,51.17Zm-351.974,-0l85.554,-49.748l-87.996,-51.174l-85.542,49.76l87.984,51.162Zm-266.418,-49.748l-87.986,-51.177l-85.564,49.76l88.001,51.16l85.549,-49.743Zm617.159,-51.884l88.001,51.172l88.001,-51.172l-88.001,-51.17l-88.001,51.17Zm-703.934,-0l87.994,51.172l87.983,-51.172l-87.976,-51.17l-88.001,51.17Zm351.972,-0l87.986,51.167l87.994,-51.167l-87.991,-51.17l-87.989,51.17Zm178.437,0.005l85.549,49.75l85.534,-49.755l-85.534,-49.747l-85.549,49.752Zm-351.995,-0.005l85.554,49.755l85.56,-49.755l-85.56,-49.747l-85.554,49.747Zm703.989,0.005l85.535,49.745l85.534,-49.75l-85.534,-49.752l-85.535,49.757Zm-884.85,-0.005l-85.549,-49.752l-85.542,49.752l85.542,49.75l85.549,-49.75Zm179.658,-0.7l85.541,-49.757l-87.983,-51.172l-85.555,49.755l87.997,51.174Zm351.972,0l85.542,-49.76l-87.992,-51.164l-85.539,49.744l87.989,51.18Zm-618.382,-49.767l-88.012,-51.162l-85.531,49.755l87.988,51.174l85.555,-49.767Zm882.342,-1.41l88.002,51.177l85.559,-49.755l-88.001,-51.169l-85.56,49.747Zm-794.361,51.172l87.988,-51.182l-85.537,-49.752l-88.006,51.174l85.555,49.76Zm351.964,0l88.001,-51.182l-85.554,-49.752l-87.986,51.174l85.539,49.76Zm351.98,0l87.976,-51.177l-85.535,-49.757l-88.001,51.182l85.56,49.752Zm265.212,-152.811l-87.976,51.172l87.95,51.174l88.002,-51.177l-87.976,-51.169Zm-1143.91,51.179l87.988,51.167l87.989,-51.167l-87.994,-51.177l-87.983,51.177Zm351.964,-0.005l87.994,51.172l88.001,-51.172l-88.001,-51.172l-87.994,51.172Zm351.972,-0.002l87.999,51.174l87.976,-51.177l-87.976,-51.177l-87.999,51.18Zm178.417,0.002l85.559,49.755l85.56,-49.755l-85.56,-49.75l-85.559,49.75Zm-703.919,-0.002l85.552,49.752l85.539,-49.752l-85.547,-49.765l-85.544,49.765Zm351.967,-0l85.542,49.752l85.552,-49.752l-85.557,-49.765l-85.537,49.765Zm524.279,-0.703l88.001,-51.169l-85.559,-49.747l-88.002,51.169l85.56,49.747Zm-351.972,-0.005l87.994,-51.172l-85.55,-49.739l-87.989,51.169l85.545,49.742Zm-173.533,-0.002l85.549,-49.752l-87.996,-51.178l-85.542,49.755l87.989,51.175Zm351.969,-0l85.535,-49.752l-87.976,-51.178l-85.56,49.755l88.001,51.175Zm-794.366,-51.182l-85.552,-49.755l-87.986,51.174l85.526,49.76l88.012,-51.179Zm263.975,51.179l87.987,-51.169l-85.552,-49.755l-87.997,51.175l85.562,49.749Zm-173.543,0l85.55,-49.749l-87.991,-51.175l-85.56,49.752l88.001,51.172Zm702.726,-101.629l88.001,51.177l88.002,-51.177l-88.002,-51.175l-88.001,51.175Zm-351.982,0l87.986,51.177l87.994,-51.177l-87.994,-51.175l-87.986,51.175Zm-351.972,-0.005l87.996,51.175l87.984,-51.175l-87.984,-51.172l-87.996,51.172Zm178.414,0.003l85.554,49.752l85.56,-49.752l-85.56,-49.753l-85.554,49.753Zm-351.95,-0l85.542,49.752l85.55,-49.752l-85.55,-49.753l-85.542,49.753Zm1055.93,-0l85.535,49.752l85.534,-49.752l-85.534,-49.753l-85.535,49.753Zm-351.989,-0l85.544,49.752l85.534,-49.752l-85.534,-49.753l-85.544,49.753Zm350.756,-0.708l85.559,-49.752l-88.001,-51.175l-85.585,49.75l88.027,51.177Zm-703.954,-0.002l85.542,-49.75l-87.989,-51.177l-85.555,49.752l88.002,51.175Zm-351.97,-0l85.55,-49.75l-88.007,-51.177l-85.531,49.752l87.988,51.175Zm877.505,-0l87.976,-51.177l-85.534,-49.748l-88.027,51.172l85.585,49.753Zm-352,-0l87.996,-51.175l-85.552,-49.75l-87.986,51.177l85.542,49.748Zm-351.962,-0.003l87.989,-51.172l-85.545,-49.752l-88.006,51.177l85.562,49.747Zm530.399,0l85.562,-49.75l-88.012,-51.177l-85.552,49.755l88.002,51.172Zm-353.208,-101.657l88.001,51.177l88.001,-51.177l-88.001,-51.177l-88.001,51.177Zm-351.965,0l87.989,51.177l87.996,-51.157l-87.994,-51.177l-87.991,51.157Zm1055.92,-0.002l87.976,51.179l88.002,-51.179l-88.002,-51.175l-87.976,51.175Zm-351.984,-0l88.006,51.179l87.976,-51.179l-87.976,-51.175l-88.006,51.175Zm-173.536,-0l85.542,49.755l85.552,-49.753l-85.552,-49.75l-85.542,49.748Zm351.96,-0l85.559,49.752l85.56,-49.752l-85.56,-49.75l-85.559,49.75Zm-703.927,-0l85.552,49.752l85.54,-49.752l-85.54,-49.728l-85.552,49.728Zm702.718,-0.698l85.535,-49.754l-87.976,-51.178l-85.56,49.753l88.001,51.179Zm-351.977,0l85.557,-49.734l-87.996,-51.177l-85.542,49.752l87.981,51.159Zm-351.964,0l85.549,-49.754l-87.991,-51.178l-85.559,49.76l88.001,51.172Zm525.497,-0.007l88.002,-51.18l-85.552,-49.752l-87.987,51.185l85.537,49.747Zm-351.954,-0l87.986,-51.18l-85.544,-49.732l-87.994,51.165l85.552,49.747Zm-351.98,-0l87.999,-51.18l-85.552,-49.752l-87.978,51.185l85.531,49.747Zm1055.91,-0.003l88.001,-51.179l-85.559,-49.753l-88.002,51.188l85.56,49.744Zm-878.703,-101.599l87.994,51.172l87.991,-51.172l-87.986,-51.177l-87.999,51.177Zm351.972,-0.002l87.986,51.172l87.994,-51.172l-87.994,-51.177l-87.986,51.177Zm351.962,-0l88.001,51.172l88.001,-51.172l-88.001,-51.177l-88.001,51.177Zm-877.465,0.002l85.542,49.753l85.55,-49.753l-85.55,-49.765l-85.542,49.765Zm703.94,-0.002l85.549,49.752l85.534,-49.752l-85.534,-49.753l-85.549,49.753Zm351.969,-0l85.534,49.752l85.56,-49.752l-85.56,-49.753l-85.534,49.753Zm-703.944,-0.003l85.544,49.753l85.557,-49.753l-85.539,-49.752l-85.562,49.752Zm350.749,-0.707l85.542,-49.752l-87.992,-51.178l-85.539,49.755l87.989,51.175Zm173.543,-0l87.976,-51.175l-85.535,-49.75l-88.001,51.173l85.56,49.752Zm178.419,-0l85.559,-49.75l-88.001,-51.18l-85.56,49.755l88.002,51.175Zm-882.356,-0l87.989,-51.175l-85.545,-49.762l-88.006,51.177l85.562,49.76Zm351.957,-0l88.001,-51.187l-85.552,-49.75l-87.986,51.172l85.537,49.765Zm-525.5,-0l85.55,-49.75l-88.007,-51.192l-85.539,49.752l87.996,51.19Zm351.965,-0.003l85.541,-49.749l-87.988,-51.18l-85.55,49.74l87.997,51.189Zm878.703,-101.639l-175.978,0l87.976,51.177l88.002,-51.177Zm-527.962,-0.005l88.006,51.18l87.976,-51.18l-175.982,0Zm-351.975,-0.003l88.001,51.173l88.002,-51.178l-176.003,0.005Zm-351.947,-0.005l87.989,51.178l87.981,-51.178l-175.97,0Zm882.346,0.008l85.559,49.752l85.56,-49.752l-171.119,0Zm-180.866,-0.003l-171.089,0.003l85.537,49.75l85.552,-49.753Zm-351.972,-0.002l-171.091,-0l2.733,1.583l82.816,48.172l85.542,-49.755Z" style="fill:url(#_Radial1);"/><g><path d="M606.491,640.524l-239.261,137.887c-3.978,2.488 -4.155,6.192 0.15,8.209l389.123,225.054c3.656,1.867 10.099,1.992 14.005,-0.172l239.334,-138.207c3.582,-2.24 3.757,-5.947 -0.15,-8.21l-389.195,-224.732c-1.792,-1.095 -4.454,-1.369 -7.115,-1.644c-2.414,0.125 -4.901,0.571 -6.891,1.815Z" style="fill-opacity:0.2;fill-rule:nonzero;"/><path d="M606.2,613.453l-226.101,130.551l-0.086,-9.598l-15.637,0.082l-0.198,21.267c0.444,1.501 1.297,2.714 2.839,4.052l389.647,224.568c3.485,2.391 9.925,2.104 13.854,-0.042l239.107,-137.844c2.025,-1.418 2.958,-2.675 3.2,-4.054l-0.083,-21.673l-18.877,8.39l-373.12,-215.618c-1.945,-1.058 -4.702,-1.538 -7.17,-1.62c-0.148,-0.004 -0.298,-0.007 -0.447,-0.007c-2.336,0 -4.757,0.594 -6.928,1.546Z" style="fill:url(#_Linear2);fill-rule:nonzero;"/><path d="M606.491,592.254l-239.261,137.886c-3.978,2.488 -4.155,6.193 0.15,8.21l389.123,225.054c3.656,1.866 10.099,1.991 14.005,-0.173l239.334,-138.207c3.582,-2.239 3.757,-5.946 -0.15,-8.209l-389.195,-224.733c-1.792,-1.094 -4.454,-1.369 -7.115,-1.643c-2.414,0.125 -4.901,0.57 -6.891,1.815Z" style="fill:url(#_Linear3);fill-rule:nonzero;"/><path d="M573.165,631.689l18.147,10.495l18.432,-10.495l-18.432,-10.551l-18.147,10.551Zm-26.182,15.199l18.15,10.649l18.271,-10.649l-18.271,-10.445l-18.15,10.445Zm60.52,4.533l18.312,10.766l18.268,-10.766l-18.268,-10.376l-18.312,10.376Zm-83.064,8.367l45.866,26.416l18.311,-10.297l-45.878,-26.692l-18.299,10.573Zm50.036,2.922l18.149,10.617l18.309,-10.617l-18.309,-10.299l-18.149,10.299Zm55.931,2.126l18.423,10.426l18.143,-10.426l-18.143,-10.571l-18.423,10.571Zm-128.344,8.023l45.864,26.37l18.145,-10.326l-45.838,-26.639l-18.171,10.595Zm95.318,3.293l18.171,10.426l18.294,-10.426l-18.294,-10.573l-18.171,10.573Zm56.026,1.907l18.271,10.522l18.184,-10.522l-18.184,-10.569l-18.271,10.569Zm-174.331,7.922l46.024,26.565l18.147,-10.624l-45.865,-26.561l-18.306,10.62Zm95.913,3.045l18.143,10.452l18.336,-10.452l-18.336,-10.77l-18.143,10.77Zm45.266,0.247l18.271,10.574l18.308,-10.574l-18.308,-10.52l-18.271,10.52Zm55.978,1.782l18.309,10.724l18.149,-10.724l-18.149,-10.298l-18.309,10.298Zm-219.639,7.948l22.991,13.371l18.046,-10.595l-22.856,-13.198l-18.181,10.422Zm95.914,2.919l18.329,10.624l18.149,-10.624l-18.149,-10.418l-18.329,10.418Zm45.491,0.25l18.045,10.621l18.31,-10.621l-18.31,-10.447l-18.045,10.447Zm45.143,0.25l18.273,10.541l18.307,-10.541l-18.307,-10.448l-18.273,10.448Zm67.504,8.763l18.272,10.422l18.208,-10.422l-18.208,-10.696l-18.272,10.696Zm-226.485,3.761l18.273,10.597l18.333,-10.597l-18.333,-10.423l-18.273,10.423Zm91.232,0.103l18.308,10.742l18.271,-10.742l-18.271,-10.424l-18.308,10.424Zm-45.899,-0l18.433,10.742l18.145,-10.742l-18.145,-10.424l-18.433,10.424Zm91.267,0.542l18.153,10.452l18.431,-10.452l-18.431,-10.55l-18.153,10.55Zm45.333,0.251l18.31,10.423l18.148,-10.423l-18.148,-10.672l-18.31,10.672Zm67.529,8.363l18.186,10.723l18.145,-10.723l-18.145,-10.494l-18.186,10.494Zm-226.513,4.04l18.213,10.591l18.269,-10.591l-18.269,-10.524l-18.213,10.524Zm91.262,0.122l18.268,10.469l18.225,-10.469l-18.225,-10.501l-18.268,10.501Zm-45.864,0l18.329,10.469l18.149,-10.469l-18.149,-10.501l-18.329,10.501Zm91.27,0.309l18.142,10.634l18.337,-10.634l-18.337,-10.462l-18.142,10.462Zm45.204,0.383l18.311,10.51l18.171,-10.51l-18.171,-10.594l-18.311,10.594Zm67.408,8.54l18.329,10.327l18.146,-10.327l-18.146,-10.598l-18.329,10.598Zm-226.487,3.727l154.993,89.738l18.312,-10.746l-154.995,-89.277l-18.31,10.285Zm91.368,0.263l18.273,10.595l18.195,-10.595l-18.195,-10.497l-18.273,10.497Zm-45.878,0l18.308,10.595l18.271,-10.595l-18.271,-10.497l-18.308,10.497Zm91.21,0.247l18.206,10.597l18.272,-10.597l-18.272,-10.46l-18.206,10.46Zm45.269,0.248l18.271,10.569l18.312,-10.569l-18.312,-10.447l-18.271,10.447Zm67.502,8.639l18.298,10.573l18.186,-10.573l-18.186,-10.499l-18.298,10.499Zm-135.154,4.159l18.175,10.422l18.203,-10.422l-18.203,-10.595l-18.175,10.595Zm-45.848,-0l18.268,10.422l18.225,-10.422l-18.225,-10.595l-18.268,10.595Zm91.145,0.422l18.208,10.521l18.332,-10.521l-18.332,-10.77l-18.208,10.77Zm45.265,0.246l18.345,10.42l18.201,-10.42l-18.201,-10.648l-18.345,10.648Zm-67.684,12.528l18.306,10.546l18.024,-10.546l-18.024,-10.571l-18.306,10.571Zm-45.827,-0l18.273,10.546l18.195,-10.546l-18.195,-10.571l-18.273,10.571Zm135.721,0.149l18.299,10.595l18.31,-10.595l-18.31,-10.449l-18.299,10.449Zm-44.617,0l18.276,10.667l18.199,-10.667l-18.199,-10.449l-18.276,10.449Zm101.335,2.327l18.189,10.583l18.305,-10.583l-18.305,-10.475l-18.189,10.475Zm-79.046,10.583l18.272,10.585l18.185,-10.585l-18.185,-10.42l-18.272,10.42Zm-44.678,0.164l18.148,10.568l18.306,-10.568l-18.306,-10.584l-18.148,10.584Zm-45.766,0l18.175,10.568l18.203,-10.568l-18.203,-10.584l-18.175,10.584Zm135.77,0.098l18.186,10.47l18.275,-10.47l-18.275,-10.477l-18.186,10.477Zm-265.09,23.608l118.54,68.34l55.892,-32.059l-118.553,-68.656l-55.879,32.375Zm321.737,-21.209l18.148,10.549l18.298,-10.549l-18.298,-10.573l-18.148,10.573Zm-124.396,10.303l18.186,10.544l18.298,-10.544l-18.298,-10.549l-18.186,10.549Zm45.351,0.246l18.328,10.495l18.051,-10.495l-18.051,-10.375l-18.328,10.375Zm-90.494,0.198l18.306,10.546l18.024,-10.546l-18.024,-10.499l-18.306,10.499Zm135.758,0.219l18.269,10.525l18.214,-10.525l-18.214,-10.583l-18.269,10.583Zm56.608,2.158l18.298,10.622l18.187,-10.622l-18.187,-10.545l-18.298,10.545Zm-124.353,10.492l18.292,10.33l18.15,-10.33l-18.15,-10.541l-18.292,10.541Zm-45.756,-0l18.148,10.33l18.186,-10.33l-18.186,-10.541l-18.148,10.541Zm91.019,0.13l18.397,10.543l18.023,-10.543l-18.023,-10.426l-18.397,10.426Zm45.454,0.371l18.027,10.421l18.457,-10.421l-18.457,-10.427l-18.027,10.427Zm56.514,2.301l18.27,10.598l18.286,-10.598l-18.286,-10.624l-18.27,10.624Zm-124.359,10.352l18.308,10.58l18.184,-10.58l-18.184,-10.527l-18.308,10.527Zm-45.742,-0l18.186,10.58l18.298,-10.58l-18.298,-10.527l-18.186,10.527Zm91.123,0.246l18.273,10.597l18.047,-10.597l-18.047,-10.598l-18.273,10.598Zm45.331,0.381l18.21,10.461l18.269,-10.461l-18.269,-10.679l-18.21,10.679Zm56.634,2.318l33.784,19.429l18.174,-10.568l-33.527,-19.31l-18.431,10.449Zm-215.713,10.048l18.109,10.648l18.332,-10.648l-18.332,-10.574l-18.109,10.574Zm91.357,0.248l18.18,10.5l18.301,-10.5l-18.301,-10.546l-18.18,10.546Zm-45.862,-0l18.292,10.5l18.15,-10.5l-18.15,-10.546l-18.292,10.546Zm91.104,0.265l18.333,10.633l18.111,-10.633l-18.111,-10.561l-18.333,10.561Zm45.363,0.254l18.141,10.552l18.309,-10.552l-18.309,-10.56l-18.141,10.56Zm-159.111,12.599l18.184,10.477l18.457,-10.477l-18.457,-10.628l-18.184,10.628Zm137.229,0l22.853,13.323l-22.853,13.244l18.149,10.461l41.221,-23.705l-41.221,-23.692l-18.149,10.369Zm-45.957,0l18.291,10.625l18.188,-10.625l-18.188,-10.369l-18.291,10.369Zm-45.756,0l18.308,10.625l18.184,-10.625l-18.184,-10.369l-18.308,10.369Zm136.492,0.671l18.172,10.525l18.397,-10.525l-18.397,-10.521l-18.172,10.521Zm-159.023,12.41l18.178,10.696l18.143,-10.696l-18.143,-10.363l-18.178,10.363Zm91.259,0.242l18.148,10.623l18.306,-10.623l-18.306,-10.485l-18.148,10.485Zm-45.738,-0l18.18,10.623l18.301,-10.623l-18.301,-10.485l-18.18,10.485Zm-22.764,12.975l18.468,10.57l18.108,-10.57l-18.108,-10.426l-18.468,10.426Zm45.53,0.269l41.12,23.749l18.306,-10.428l-41.135,-23.764l-18.291,10.443Zm-22.544,13.039l41.225,23.699l18.269,-10.441l-41.036,-23.747l-18.458,10.489Z" style="fill:url(#_Linear4);fill-rule:nonzero;"/><path d="M572.883,629.309l18.144,10.498l18.435,-10.498l-18.435,-10.549l-18.144,10.549Zm-26.184,15.198l18.15,10.647l18.271,-10.647l-18.271,-10.443l-18.15,10.443Zm60.523,4.534l18.305,10.768l18.271,-10.768l-18.271,-10.373l-18.305,10.373Zm-83.064,8.369l45.863,26.419l18.309,-10.303l-45.874,-26.689l-18.298,10.573Zm50.035,2.922l18.148,10.619l18.308,-10.619l-18.308,-10.302l-18.148,10.302Zm55.93,2.125l18.419,10.427l18.15,-10.427l-18.15,-10.569l-18.419,10.569Zm-128.344,8.028l45.864,26.364l18.145,-10.324l-45.837,-26.638l-18.172,10.598Zm95.315,3.291l18.172,10.421l18.298,-10.421l-18.298,-10.576l-18.172,10.576Zm56.027,1.903l18.272,10.525l18.186,-10.525l-18.186,-10.568l-18.272,10.568Zm-174.33,7.922l46.025,26.566l18.144,-10.619l-45.862,-26.566l-18.307,10.619Zm95.914,3.044l18.144,10.454l18.331,-10.454l-18.331,-10.767l-18.144,10.767Zm45.268,0.255l18.269,10.567l18.308,-10.567l-18.308,-10.525l-18.269,10.525Zm55.975,1.774l18.31,10.726l18.15,-10.726l-18.15,-10.296l-18.31,10.296Zm-219.639,7.952l22.989,13.37l18.049,-10.596l-22.855,-13.196l-18.183,10.422Zm95.912,2.922l18.334,10.619l18.145,-10.619l-18.145,-10.423l-18.334,10.423Zm45.493,0.25l18.046,10.62l18.311,-10.62l-18.311,-10.449l-18.046,10.449Zm45.148,0.247l18.271,10.546l18.307,-10.546l-18.307,-10.447l-18.271,10.447Zm67.5,8.761l18.271,10.424l18.207,-10.424l-18.207,-10.694l-18.271,10.694Zm-226.484,3.763l18.271,10.596l18.333,-10.596l-18.333,-10.42l-18.271,10.42Zm91.23,0.102l18.311,10.74l18.269,-10.74l-18.269,-10.428l-18.311,10.428Zm-45.899,-0l18.434,10.74l18.145,-10.74l-18.145,-10.428l-18.434,10.428Zm91.269,0.546l18.147,10.446l18.431,-10.446l-18.431,-10.551l-18.147,10.551Zm45.333,0.248l18.304,10.423l18.149,-10.423l-18.149,-10.674l-18.304,10.674Zm67.527,8.369l18.182,10.714l18.148,-10.714l-18.148,-10.504l-18.182,10.504Zm-226.51,4.034l18.21,10.59l18.272,-10.59l-18.272,-10.526l-18.21,10.526Zm91.256,0.12l18.273,10.47l18.22,-10.47l-18.22,-10.499l-18.273,10.499Zm-45.863,-0l18.334,10.47l18.145,-10.47l-18.145,-10.499l-18.334,10.499Zm91.27,0.312l18.148,10.63l18.331,-10.63l-18.331,-10.463l-18.148,10.463Zm45.205,0.38l18.313,10.514l18.17,-10.514l-18.17,-10.595l-18.313,10.595Zm67.408,8.539l18.331,10.328l18.147,-10.328l-18.147,-10.594l-18.331,10.594Zm-226.486,3.732l154.992,89.733l18.314,-10.749l-154.997,-89.274l-18.309,10.29Zm91.369,0.258l18.272,10.599l18.197,-10.599l-18.197,-10.497l-18.272,10.497Zm-45.879,0l18.311,10.599l18.269,-10.599l-18.269,-10.497l-18.311,10.497Zm91.212,0.249l18.206,10.595l18.272,-10.595l-18.272,-10.462l-18.206,10.462Zm45.269,0.247l18.269,10.571l18.308,-10.571l-18.308,-10.447l-18.269,10.447Zm67.502,8.642l18.297,10.57l18.186,-10.57l-18.186,-10.503l-18.297,10.503Zm-135.154,4.159l18.169,10.418l18.213,-10.418l-18.213,-10.598l-18.169,10.598Zm-45.853,0l18.273,10.418l18.22,-10.418l-18.22,-10.598l-18.273,10.598Zm91.15,0.42l18.208,10.523l18.331,-10.523l-18.331,-10.77l-18.208,10.77Zm45.266,0.246l18.345,10.425l18.196,-10.425l-18.196,-10.647l-18.345,10.647Zm-67.687,12.53l18.308,10.546l18.02,-10.546l-18.02,-10.574l-18.308,10.574Zm-45.826,0l18.272,10.546l18.197,-10.546l-18.197,-10.574l-18.272,10.574Zm135.721,0.147l18.297,10.598l18.308,-10.598l-18.308,-10.448l-18.297,10.448Zm-44.61,-0l18.27,10.67l18.199,-10.67l-18.199,-10.448l-18.27,10.448Zm101.325,2.323l18.192,10.588l18.304,-10.588l-18.304,-10.472l-18.192,10.472Zm-79.043,10.588l18.27,10.583l18.185,-10.583l-18.185,-10.421l-18.27,10.421Zm-44.675,0.161l18.144,10.571l18.308,-10.571l-18.308,-10.582l-18.144,10.582Zm-45.768,0l18.169,10.571l18.213,-10.571l-18.213,-10.582l-18.169,10.582Zm135.769,0.102l18.185,10.469l18.273,-10.469l-18.273,-10.476l-18.185,10.476Zm56.646,2.398l18.153,10.547l18.294,-10.547l-18.294,-10.568l-18.153,10.568Zm-321.453,24.621l118.54,68.344l55.892,-32.059l-118.553,-68.655l-55.879,32.37Zm197.057,-14.32l18.186,10.545l18.297,-10.545l-18.297,-10.55l-18.186,10.55Zm45.346,0.246l18.333,10.499l18.054,-10.499l-18.054,-10.375l-18.333,10.375Zm-90.489,0.197l18.308,10.55l18.02,-10.55l-18.02,-10.496l-18.308,10.496Zm135.758,0.224l18.271,10.525l18.212,-10.525l-18.212,-10.584l-18.271,10.584Zm56.609,2.156l18.297,10.619l18.184,-10.619l-18.184,-10.546l-18.297,10.546Zm-124.354,10.494l18.292,10.324l18.149,-10.324l-18.149,-10.544l-18.292,10.544Zm-45.757,0l18.149,10.324l18.186,-10.324l-18.186,-10.544l-18.149,10.544Zm91.023,0.125l18.394,10.55l18.023,-10.55l-18.023,-10.421l-18.394,10.421Zm45.455,0.374l18.024,10.421l18.457,-10.421l-18.457,-10.427l-18.024,10.427Zm56.509,2.3l18.274,10.597l18.283,-10.597l-18.283,-10.623l-18.274,10.623Zm-124.356,10.346l18.306,10.587l18.184,-10.587l-18.184,-10.52l-18.306,10.52Zm-45.744,-0l18.186,10.587l18.297,-10.587l-18.297,-10.52l-18.186,10.52Zm91.124,0.251l18.27,10.595l18.051,-10.595l-18.051,-10.597l-18.27,10.597Zm45.333,0.386l18.207,10.46l18.269,-10.46l-18.269,-10.685l-18.207,10.685Zm56.629,2.31l33.785,19.437l18.172,-10.565l-33.522,-19.318l-18.435,10.446Zm-215.711,10.056l18.111,10.643l18.331,-10.643l-18.331,-10.576l-18.111,10.576Zm91.356,0.247l18.182,10.495l18.296,-10.495l-18.296,-10.548l-18.182,10.548Zm-45.861,0l18.292,10.495l18.149,-10.495l-18.149,-10.548l-18.292,10.548Zm91.104,0.258l18.335,10.635l18.112,-10.635l-18.112,-10.561l-18.335,10.561Zm45.359,0.257l18.145,10.549l18.309,-10.549l-18.309,-10.558l-18.145,10.558Zm-159.107,12.601l18.186,10.477l18.453,-10.477l-18.453,-10.633l-18.186,10.633Zm137.235,0l22.848,13.323l-22.848,13.245l18.143,10.463l41.221,-23.708l-41.221,-23.692l-18.143,10.369Zm-45.963,0l18.294,10.625l18.181,-10.625l-18.181,-10.369l-18.294,10.369Zm-45.754,0l18.306,10.625l18.184,-10.625l-18.184,-10.369l-18.306,10.369Zm136.489,0.673l18.171,10.525l18.393,-10.525l-18.393,-10.522l-18.171,10.522Zm-159.018,12.401l18.173,10.694l18.143,-10.694l-18.143,-10.356l-18.173,10.356Zm91.255,0.249l18.146,10.621l18.31,-10.621l-18.31,-10.484l-18.146,10.484Zm-45.739,-0l18.182,10.621l18.296,-10.621l-18.296,-10.484l-18.182,10.484Zm-22.764,12.975l18.469,10.57l18.11,-10.57l-18.11,-10.427l-18.469,10.427Zm45.531,0.27l41.118,23.741l18.31,-10.42l-41.134,-23.769l-18.294,10.448Zm-22.546,13.037l41.221,23.708l18.27,-10.449l-41.034,-23.744l-18.457,10.485Z" style="fill:url(#_Linear5);fill-rule:nonzero;"/><path d="M617.2,301.25l8.215,10.993l2.068,-1.851l-0.295,264.421c-0.167,4.475 3.136,10.323 7.203,12.202l380.096,219.428l2.221,12.635l11.694,-6.6l-0.05,-0.556c1.66,-0.144 2.07,-1.853 2.43,-4.117l-0.17,-276.096c0.166,-4.476 -3.135,-10.323 -7.202,-12.198l-388.932,-224.792l-17.278,6.531Z" style="fill:url(#_Linear6);fill-rule:nonzero;"/><path d="M615.578,305.379l-0.129,276.364c-0.024,4.408 3.335,9.825 7.151,12.156l389.449,224.692c3.586,2.17 6.876,0.389 6.9,-4.02l-0.028,-276.137c0.181,-4.637 -3.176,-10.054 -6.99,-12.384l-389.223,-224.531c-1.301,-0.572 -2.149,-0.823 -3.154,-0.848c-4.182,0.136 -3.976,4.708 -3.976,4.708Z" style="fill:url(#_Linear7);fill-rule:nonzero;"/><path d="M633.197,560.47l368.526,212.645l0.216,-7.398l-362.049,-208.844l-0.049,-225.608l-6.478,-3.797l-0.166,233.002Z" style="fill:url(#_Linear8);fill-rule:nonzero;"/><path d="M639.664,556.838l362.096,209.015l0.315,-225.589l-362.521,-209.26l0.11,225.834Z" style="fill:url(#_Linear9);fill-rule:nonzero;"/><g><path d="M724.44,576.2l16.629,9.596l-0,9.384l-16.629,-9.599l-0,-9.381Zm67.665,-56.232l98.291,56.751l0,9.38l-98.291,-56.749l-0,-9.382Zm-77.868,40.667l-43.163,-24.925l0,-9.383l43.163,24.925l-0,9.383Zm229.817,-19.793l-16.625,-9.599l0,-9.381l16.625,9.599l0,9.381Zm-229.817,-18.327l-43.163,-24.92l0,-9.381l43.163,24.92l-0,9.381Zm67.663,-18.113l-57.46,-33.178l-0,-9.381l57.46,33.177l0,9.382Z" style="fill:#4dceff;"/><path d="M724.44,557.143l37.041,21.386l-0,9.381l-37.041,-21.387l-0,-9.38Zm67.665,0.949l16.625,9.595l-0,9.381l-16.625,-9.595l-0,-9.381Zm-77.868,-73.696l-43.163,-24.922l0,-9.378l43.163,24.919l-0,9.381Zm94.493,-2.622l-57.459,-33.173l0,-9.381l57.459,33.171l-0,9.383Z" style="fill:#fea21d;"/><path d="M859.766,654.328l16.627,9.601l0,9.382l-16.627,-9.601l-0,-9.382Zm37.04,-102.646l-118.707,-68.539l-0,-9.38l118.707,68.539l-0,9.38Zm-155.737,-32.734l-16.629,-9.606l-0,-9.382l16.629,9.606l-0,9.382Zm-26.832,-53.615l-43.163,-24.915l0,-9.382l43.163,24.917l-0,9.38Z" style="fill:#40cd8e;"/><path d="M792.105,577.15l118.705,68.534l0,9.381l-118.705,-68.534l-0,-9.381Zm125.121,43.498l-57.46,-33.176l-0,-9.382l57.46,33.176l0,9.382Zm-108.496,-157.937l-16.625,-9.599l-0,-9.379l16.625,9.598l-0,9.38Z" style="fill:#fc3c37;"/><path d="M886.594,669.82l57.46,33.173l0,9.381l-57.46,-33.173l-0,-9.381Zm61.249,-2.755l16.624,9.597l-0,9.381l-16.624,-9.596l-0,-9.382Zm-26.831,-15.49l16.626,9.6l0,9.381l-16.626,-9.6l-0,-9.381Zm-169.741,-59.888l98.291,56.751l0,9.381l-98.291,-56.752l0,-9.38Zm88.073,31.795l16.628,9.6l-0,9.382l-16.628,-9.601l0,-9.381Zm-67.661,-39.065l57.458,33.174l-0,9.382l-57.458,-33.173l0,-9.383Zm47.25,-10.839l57.46,33.174l0,9.383l-57.46,-33.176l-0,-9.381Zm81.664,9.03l16.625,9.599l-0,9.381l-16.625,-9.598l-0,-9.382Zm63.875,8.14l-57.46,-33.174l-0,-9.383l57.46,33.175l0,9.382Zm-114.91,-9.168l-98.291,-56.745l0,-9.383l98.291,56.747l0,9.381Zm-125.122,-43.498l57.46,33.177l0,9.38l-57.46,-33.177l-0,-9.38Zm-10.203,41.611l-43.163,-24.924l0,-9.383l43.163,24.923l-0,9.384Zm10.203,-60.668l57.46,33.176l0,9.38l-57.46,-33.175l-0,-9.381Zm151.953,39.927l-57.46,-33.173l-0,-9.382l57.46,33.173l0,9.382Zm-162.156,-17.379l-43.163,-24.92l0,-9.383l43.163,24.922l-0,9.381Zm202.989,-16.22l-98.293,-56.751l-0,-9.382l98.293,56.749l0,9.384Zm-192.786,-44.449l57.46,33.174l0,9.381l-57.46,-33.173l-0,-9.382Zm151.953,39.933l-57.46,-33.175l-0,-9.38l57.46,33.173l0,9.382Zm-67.663,-0.95l-16.625,-9.596l-0,-9.38l16.625,9.595l-0,9.381Zm-94.493,-16.433l-43.163,-24.921l0,-9.381l43.163,24.918l-0,9.384Zm53.659,-26.201l-16.625,-9.596l0,-9.382l16.625,9.596l-0,9.382Zm-26.827,-15.487l-16.629,-9.602l-0,-9.381l16.629,9.603l-0,9.38Zm40.831,-14.544l-57.46,-33.171l-0,-9.384l57.46,33.175l0,9.38Zm-67.663,-0.949l-43.163,-24.914l0,-9.381l43.163,24.915l-0,9.38Zm26.832,-3.562l-16.629,-9.603l-0,-9.382l16.629,9.605l-0,9.38Zm-26.832,-15.494l-43.163,-24.915l0,-9.381l43.163,24.915l-0,9.381Z" style="fill:#f1f1f9;"/><path d="M714.237,408.161l-43.163,-24.921l0,-9.382l43.163,24.922l-0,9.381Z" style="fill:#fea21d;"/></g><g><g><path d="M1118.83,965.905l-5.783,1.009l-0.415,-4.587l-201.307,-116.205l0,-173.616l207.505,119.798l0,173.601Z" style="fill:#d8d8e0;fill-rule:nonzero;"/><path d="M905.545,673.515l-0,173.616l207.505,119.783l-0,-173.601l-207.505,-119.798Z" style="fill:#f1f1f9;fill-rule:nonzero;"/><path d="M912.295,705.944l0,137.138l193.529,111.715l-0,-137.124l-193.529,-111.729Z" style="fill:#fff;fill-rule:nonzero;"/></g><g><path d="M1118.83,811.055l-5.783,3.813l-0.722,-7.568l-201,-116.04l0,-10.232c-2.145,-1.71 -4.234,-3.428 -4.234,-3.428l-1.533,-4.075l5.767,-3.822l207.505,119.798l0,21.554Z" style="fill:#9da2c5;fill-rule:nonzero;"/><path d="M1113.05,793.319l5.783,-3.818l0,21.554l-5.783,3.813l-0,-21.549Z" style="fill:#8b91af;"/><path d="M905.545,673.515l-0,21.557l207.505,119.796l-0,-21.555l-207.505,-119.798Z" style="fill:#b1b5d3;fill-rule:nonzero;"/></g><g><g><path d="M1047.78,898.867l32.127,18.544l-0,5.243l-32.127,-18.543l0,-5.244Z" style="fill:#f1f1f9;"/><path d="M1082.03,897.329l9.291,5.364l0,5.243l-9.291,-5.363l-0,-5.244Z" style="fill:#f1f1f9;"/><path d="M1067.03,888.667l9.298,5.367l-0,5.246l-9.298,-5.369l0,-5.244Z" style="fill:#f1f1f9;"/><path d="M972.113,855.18l54.96,31.731l-0,5.248l-54.96,-31.731l-0,-5.248Z" style="fill:#f1f1f9;"/><path d="M1021.36,872.958l9.296,5.37l0,5.242l-9.296,-5.367l-0,-5.245Z" style="fill:#f1f1f9;"/><path d="M983.526,851.116l32.13,18.55l-0,5.243l-32.13,-18.548l-0,-5.245Z" style="fill:#f1f1f9;"/><path d="M1064.9,871.375l-32.126,-18.551l-0,-5.247l32.126,18.55l0,5.248Z" style="fill:#fc3c37;"/><path d="M1009.95,845.055l32.125,18.55l0,5.243l-32.125,-18.548l-0,-5.245Z" style="fill:#f1f1f9;"/><path d="M1055.61,850.103l9.296,5.367l0,5.246l-9.296,-5.366l-0,-5.247Z" style="fill:#f1f1f9;"/><path d="M1091.33,854.656l-32.126,-18.55l-0,-5.245l32.126,18.549l0,5.246Z" style="fill:#f1f1f9;"/><path d="M957.111,835.864l20.71,11.959l-0,5.244l-20.71,-11.954l-0,-5.249Z" style="fill:#f1f1f9;"/><path d="M994.946,815.078l54.96,31.733l0,5.246l-54.96,-31.732l0,-5.247Z" style="fill:#f1f1f9;"/><path d="M1027.07,849.528l-54.96,-31.729l-0,-5.245l54.96,31.729l0,5.245Z" style="fill:#f1f1f9;"/><path d="M957.111,825.207l32.131,18.551l-0,5.244l-32.131,-18.548l-0,-5.247Z" style="fill:#f1f1f9;"/><path d="M951.406,848.474l-24.132,-13.937l-0,-5.246l24.132,13.936l-0,5.247Z" style="fill:#f1f1f9;"/><path d="M994.946,836.395l9.298,5.366l-0,5.245l-9.298,-5.365l0,-5.246Z" style="fill:#f1f1f9;"/><path d="M951.406,837.818l-24.132,-13.936l-0,-5.248l24.132,13.936l-0,5.248Z" style="fill:#fc3c37;"/><path d="M1053.49,832.811l-66.374,-38.323l0,-5.245l66.374,38.324l0,5.244Z" style="fill:#f1f1f9;"/><path d="M951.406,827.158l-24.132,-13.933l-0,-5.246l24.132,13.934l-0,5.245Z" style="fill:#f1f1f9;"/><path d="M1064.9,818.088l-54.956,-31.732l0,-5.244l54.956,31.732l0,5.244Z" style="fill:#fc3c37;"/><path d="M957.111,793.236l32.131,18.55l-0,5.243l-32.131,-18.547l-0,-5.246Z" style="fill:#f1f1f9;"/><path d="M951.406,816.503l-24.132,-13.934l-0,-5.246l24.132,13.933l-0,5.247Z" style="fill:#f1f1f9;"/><path d="M1042.08,815.566l-32.126,-18.55l0,-5.245l32.126,18.546l-0,5.249Z" style="fill:#f1f1f9;"/><path d="M1004.24,815.034l-9.298,-5.366l0,-5.244l9.298,5.365l-0,5.245Z" style="fill:#f1f1f9;"/><path d="M966.407,814.506l-9.296,-5.368l-0,-5.246l9.296,5.371l0,5.243Z" style="fill:#f1f1f9;"/><path d="M989.242,806.374l-32.131,-18.549l0,-5.247l32.131,18.551l0,5.245Z" style="fill:#fc3c37;"/><path d="M951.406,805.845l-24.132,-13.935l-0,-5.245l24.132,13.933l-0,5.247Z" style="fill:#f1f1f9;"/><path d="M1004.24,793.724l-32.131,-18.55l-0,-5.245l32.131,18.547l-0,5.248Z" style="fill:#f1f1f9;"/><path d="M981.41,791.198l-9.297,-5.37l-0,-5.244l9.297,5.365l0,5.249Z" style="fill:#f1f1f9;"/><path d="M951.406,784.531l-24.132,-13.937l-0,-5.242l24.132,13.931l-0,5.248Z" style="fill:#f1f1f9;"/><path d="M1004.24,783.065l-9.298,-5.372l0,-5.242l9.298,5.367l-0,5.247Z" style="fill:#f1f1f9;"/><path d="M966.407,782.535l-9.296,-5.37l-0,-5.245l9.296,5.37l0,5.245Z" style="fill:#f1f1f9;"/><path d="M989.242,774.402l-32.131,-18.549l0,-5.245l32.131,18.549l0,5.245Z" style="fill:#f1f1f9;"/><path d="M951.406,773.872l-24.132,-13.93l-0,-5.248l24.132,13.932l-0,5.246Z" style="fill:#f1f1f9;"/><path d="M951.406,763.217l-24.132,-13.932l-0,-5.247l24.132,13.932l-0,5.247Z" style="fill:#f1f1f9;"/><path d="M1032.78,890.206l9.298,5.368l-0,5.245l-9.298,-5.367l0,-5.246Z" style="fill:#fea21d;"/><path d="M994.946,847.051l66.374,38.322l-0,5.245l-66.374,-38.321l0,-5.246Z" style="fill:#40cd8e;"/><path d="M957.111,846.523l9.296,5.362l0,5.248l-9.296,-5.368l-0,-5.242Z" style="fill:#fea21d;"/><path d="M957.111,814.55l32.131,18.55l-0,5.249l-32.131,-18.551l-0,-5.248Z" style="fill:#40cd8e;"/><path d="M1042.08,836.876l-32.126,-18.549l0,-5.246l32.126,18.55l-0,5.245Z" style="fill:#4dceff;"/><path d="M1079.91,826.749l-9.297,-5.367l-0,-5.243l9.297,5.367l0,5.243Z" style="fill:#4dceff;"/><path d="M951.406,795.188l-24.132,-13.934l-0,-5.245l24.132,13.934l-0,5.245Z" style="fill:#40cd8e;"/><path d="M966.407,771.88l-9.296,-5.37l-0,-5.247l9.296,5.371l0,5.246Z" style="fill:#5dadfd;"/><path d="M951.406,755.276l-24.132,-13.933l-0,-5.247l24.132,13.936l-0,5.244Z" style="fill:#fea21d;"/></g></g></g><g><g><path d="M657.162,424.001l-4.447,0.776l-0.319,-3.527l-154.787,-89.352l-0,-133.494l159.553,92.113l-0,133.484Z" style="fill:#d8d8e0;fill-rule:nonzero;"/><path d="M493.162,199.18l-0,133.494l159.553,92.103l-0,-133.484l-159.553,-92.113Z" style="fill:#f1f1f9;fill-rule:nonzero;"/><path d="M498.427,224.188l-0,105.958l149.527,86.315l-0,-105.947l-149.527,-86.326Z" style="fill:#fff;fill-rule:nonzero;"/></g><g><path d="M657.162,304.936l-4.447,2.931l-0.555,-5.819l-154.551,-89.225l-0,-7.867c-1.65,-1.315 -3.256,-2.636 -3.256,-2.636l-1.178,-3.133l4.434,-2.939l159.553,92.114l-0,16.574Z" style="fill:#9da2c5;fill-rule:nonzero;"/><path d="M652.715,291.306l4.447,-2.944l-0,16.574l-4.447,2.931l-0,-16.561Z" style="fill:#8b91af;"/><path d="M493.162,199.18l-0,16.575l159.553,92.112l-0,-16.574l-159.553,-92.113Z" style="fill:#b1b5d3;fill-rule:nonzero;"/></g><g><g><path d="M602.528,372.455l24.703,14.259l-0,4.031l-24.703,-14.258l0,-4.032Zm26.334,-1.183l7.144,4.125l-0,4.031l-7.144,-4.124l-0,-4.032Zm-11.536,-6.66l7.149,4.127l0,4.033l-7.149,-4.128l0,-4.032Zm-72.979,-25.749l42.259,24.399l0,4.035l-42.259,-24.399l-0,-4.035Zm37.867,13.67l7.149,4.129l-0,4.031l-7.149,-4.127l0,-4.033Zm-29.092,-16.794l24.705,14.263l0,4.031l-24.705,-14.261l0,-4.033Zm62.573,15.577l-24.702,-14.264l-0,-4.034l24.702,14.263l0,4.035Zm-42.256,-20.238l24.702,14.264l0,4.031l-24.702,-14.262l0,-4.033Zm35.108,3.882l7.148,4.127l0,4.033l-7.148,-4.126l0,-4.034Zm27.464,3.5l-24.703,-14.263l0,-4.033l24.703,14.263l-0,4.033Zm-103.199,-14.449l15.924,9.195l-0,4.033l-15.924,-9.192l-0,-4.036Zm29.092,-15.982l42.259,24.4l0,4.033l-42.259,-24.399l-0,-4.034Zm24.703,26.489l-42.26,-24.397l0,-4.033l42.26,24.397l-0,4.033Zm-53.795,-18.701l24.706,14.264l-0,4.032l-24.706,-14.262l-0,-4.034Zm-4.387,17.89l-18.555,-10.716l-0,-4.034l18.555,10.716l-0,4.034Zm33.479,-9.287l7.149,4.126l-0,4.032l-7.149,-4.125l-0,-4.033Zm-33.479,1.094l-18.555,-10.716l-0,-4.035l18.555,10.716l-0,4.035Zm78.492,-3.85l-51.035,-29.467l-0,-4.033l51.035,29.468l0,4.032Zm-78.492,-4.347l-18.555,-10.713l-0,-4.034l18.555,10.714l-0,4.033Zm87.27,-6.974l-42.256,-24.399l0,-4.032l42.256,24.399l0,4.032Zm-82.883,-19.109l24.706,14.263l-0,4.032l-24.706,-14.261l-0,-4.034Zm-4.387,17.89l-18.555,-10.714l-0,-4.033l18.555,10.713l-0,4.034Zm69.717,-0.72l-24.702,-14.264l-0,-4.032l24.702,14.26l-0,4.036Zm-29.089,-0.409l-7.149,-4.126l-0,-4.033l7.149,4.126l-0,4.033Zm-29.093,-0.406l-7.148,-4.128l-0,-4.033l7.148,4.129l-0,4.032Zm17.558,-6.253l-24.706,-14.263l-0,-4.034l24.706,14.264l-0,4.033Zm-29.093,-0.407l-18.555,-10.715l-0,-4.032l18.555,10.712l-0,4.035Zm40.628,-9.32l-24.706,-14.263l-0,-4.033l24.706,14.261l-0,4.035Zm-17.557,-1.942l-7.149,-4.129l-0,-4.032l7.149,4.125l-0,4.036Zm-23.071,-5.127l-18.555,-10.715l-0,-4.031l18.555,10.711l-0,4.035Zm40.628,-1.127l-7.149,-4.13l-0,-4.031l7.149,4.127l-0,4.034Zm-29.093,-0.407l-7.148,-4.129l-0,-4.033l7.148,4.129l-0,4.033Zm17.558,-6.254l-24.706,-14.262l-0,-4.033l24.706,14.263l-0,4.032Zm-29.093,-0.407l-18.555,-10.711l-0,-4.035l18.555,10.712l-0,4.034Zm-0,-8.193l-18.555,-10.713l-0,-4.034l18.555,10.713l-0,4.034Z" style="fill:#f1f1f9;"/><path d="M590.992,365.796l7.149,4.127l0,4.033l-7.149,-4.127l0,-4.033Z" style="fill:#fea21d;"/><path d="M561.904,332.613l51.035,29.466l0,4.033l-51.035,-29.466l-0,-4.033Z" style="fill:#40cd8e;"/><path d="M532.812,332.207l7.148,4.123l-0,4.035l-7.148,-4.127l-0,-4.031Z" style="fill:#fea21d;fill-opacity:0.42;"/><path d="M532.812,307.623l24.706,14.263l-0,4.036l-24.706,-14.264l-0,-4.035Z" style="fill:#40cd8e;"/><path d="M598.142,324.789l-24.702,-14.262l-0,-4.034l24.702,14.263l-0,4.033Z" style="fill:#4dceff;"/><path d="M627.231,317.002l-7.149,-4.126l0,-4.032l7.149,4.127l0,4.031Z" style="fill:#4dceff;"/><path d="M528.425,292.735l-18.555,-10.714l-0,-4.033l18.555,10.714l-0,4.033Z" style="fill:#40cd8e;"/><path d="M539.96,274.813l-7.148,-4.129l-0,-4.034l7.148,4.13l-0,4.033Z" style="fill:#5dadfd;"/><path d="M528.425,262.046l-18.555,-10.713l-0,-4.035l18.555,10.716l-0,4.032Z" style="fill:#fea21d;"/></g></g></g><g><g><path d="M427.767,577.589l-0,3.744c-3.544,1.617 -5.316,5.627 -5.316,12.031c0,6.416 1.772,12.318 5.316,17.705l-0,3.743c-3.238,-3.433 -5.835,-7.37 -7.794,-11.809c-1.958,-4.439 -2.937,-8.613 -2.937,-12.52c-0,-3.907 0.962,-7.021 2.887,-9.343c1.925,-2.321 4.54,-3.505 7.844,-3.551Z" style="fill:#fff;fill-rule:nonzero;"/><path d="M442.749,585.557l-0,3.744c3.543,5.387 5.315,11.282 5.315,17.686c0,6.416 -1.772,10.433 -5.315,12.05l-0,3.744c3.237,0.01 5.835,-1.163 7.793,-3.519c1.958,-2.356 2.938,-5.488 2.938,-9.395c-0,-3.907 -0.963,-8.045 -2.888,-12.415c-1.925,-4.369 -4.54,-8.334 -7.843,-11.895Z" style="fill:#fff;fill-rule:nonzero;"/></g><g><path d="M1178.71,596.622l1.281,0.682c2.406,1.28 3.609,0.808 3.609,-1.415c-0,-1.197 -0.166,-2.508 -0.497,-3.933l-0.602,-2.679c-0.383,-1.726 -0.575,-3.282 -0.575,-4.667c0,-2.428 0.959,-3.825 2.877,-4.19c1.917,-0.365 4.567,0.351 7.949,2.15l0,4.438c-2.894,-1.368 -4.341,-1.043 -4.341,0.974c0,0.496 0.087,1.312 0.262,2.448l0.392,2.389c0.192,1.282 0.288,2.547 0.288,3.796c-0,3.505 -1.718,5.319 -5.152,5.442c3.434,3.811 5.152,7.46 5.152,10.949c-0,1.248 -0.096,2.411 -0.288,3.489l-0.392,1.972c-0.175,0.95 -0.262,1.673 -0.262,2.169c0,2.018 1.447,3.882 4.341,5.592l0,4.438c-3.382,-1.799 -6.032,-3.901 -7.949,-6.306c-1.918,-2.405 -2.877,-4.822 -2.877,-7.25c0,-1.385 0.192,-2.737 0.575,-4.055l0.602,-2.04c0.331,-1.072 0.497,-2.215 0.497,-3.429c-0,-2.206 -1.203,-3.949 -3.609,-5.229l-1.281,-0.681l-0,-5.054Z" style="fill:#fff;fill-rule:nonzero;"/><path d="M1228.85,623.291l-1.282,-0.682c-2.405,-1.279 -3.608,-3.031 -3.608,-5.254c-0,-1.197 0.165,-2.332 0.497,-3.404l0.601,-2.04c0.384,-1.318 0.575,-2.669 0.575,-4.054c0,-2.429 -0.959,-4.845 -2.876,-7.251c-1.918,-2.405 -4.568,-4.507 -7.95,-6.306l0,4.438c2.894,1.71 4.341,3.574 4.341,5.592c0,0.496 -0.087,1.219 -0.261,2.17l-0.393,1.971c-0.191,1.078 -0.287,2.242 -0.287,3.49c-0,3.506 1.717,7.146 5.151,10.923c-3.434,0.157 -5.151,1.979 -5.151,5.468c-0,1.248 0.096,2.513 0.287,3.795l0.393,2.389c0.174,1.136 0.261,1.952 0.261,2.448c0,2.018 -1.447,2.343 -4.341,0.974l0,4.438c3.382,1.799 6.032,2.516 7.95,2.151c1.917,-0.365 2.876,-1.762 2.876,-4.191c0,-1.385 -0.191,-2.94 -0.575,-4.666l-0.601,-2.68c-0.332,-1.425 -0.497,-2.744 -0.497,-3.958c-0,-2.206 1.203,-2.669 3.608,-1.39l1.282,0.682l-0,-5.053Z" style="fill:#fff;fill-rule:nonzero;"/></g><g><path d="M690.005,212.528l-33.182,-33.923l33.182,1.375l0,5.306l-22.308,-0.925l0,0.055l22.308,22.807l0,5.305Z" style="fill:#fff;fill-rule:nonzero;"/><path d="M688.595,219.915l14.937,-40.877l5.045,2.683l-14.937,40.877l-5.045,-2.683Z" style="fill:#fff;fill-rule:nonzero;"/><path d="M707.167,221.656l33.182,1.375l-33.182,-33.923l0,5.306l22.308,22.806l-0,0.055l-22.308,-0.924l0,5.305Z" style="fill:#fff;fill-rule:nonzero;"/></g><g><path d="M861.489,1003.72l26.789,-2.025l-28.949,-31.672l0.352,5.493l19.462,21.293l0.004,0.057l-18.01,1.362l0.352,5.492Z" style="fill:#fff;fill-rule:nonzero;"/><path d="M883.602,1025.33l-0.294,-4.582l24.103,12.82l0.294,4.582l-24.103,-12.82Z" style="fill:#fff;fill-rule:nonzero;"/></g><g><path d="M246.397,425.608l-11.642,-6.851l-19.052,-32.679l-0,21.467l-9.713,-5.716l0,-46.566l9.713,5.716l-0,20.476l18.429,-9.631l11.456,6.742l-20.422,10.242l21.231,36.8Z" style="fill:#fff;fill-rule:nonzero;"/><path d="M267.149,438.415c-4.359,-2.565 -8.146,-5.774 -11.363,-9.626c-3.217,-3.853 -5.697,-8.086 -7.44,-12.701c-1.743,-4.615 -2.615,-9.344 -2.615,-14.188c0,-4.843 0.872,-8.547 2.615,-11.11c1.743,-2.562 4.223,-3.866 7.44,-3.911c3.217,-0.044 7.004,1.216 11.363,3.781c4.358,2.565 8.145,5.762 11.362,9.593c3.217,3.83 5.697,8.053 7.44,12.668c1.744,4.614 2.615,9.344 2.615,14.187c0,4.844 -0.871,8.547 -2.615,11.11c-1.743,2.563 -4.223,3.878 -7.44,3.944c-3.217,0.067 -7.004,-1.182 -11.362,-3.747Zm-0,-7.992c3.652,2.149 6.527,2.476 8.623,0.979c2.096,-1.496 3.144,-4.821 3.144,-9.973c-0,-5.152 -1.038,-9.692 -3.113,-13.622c-2.075,-3.929 -4.96,-6.981 -8.654,-9.155c-3.694,-2.174 -6.569,-2.511 -8.623,-1.012c-2.055,1.499 -3.082,4.824 -3.082,9.976c-0,5.152 1.037,9.704 3.113,13.655c2.075,3.952 4.939,7.002 8.592,9.152Z" style="fill:#fff;fill-rule:nonzero;"/><path d="M304.161,459.602l0,-38.178l-13.759,-8.097l-0,-8.388l37.232,21.91l-0,8.389l-13.76,-8.098l0,38.178l-9.713,-5.716Z" style="fill:#fff;fill-rule:nonzero;"/><path d="M332.739,476.42l0,-46.566l9.713,5.715l-0,38.178l19.612,11.541l-0,8.389l-29.325,-17.257Z" style="fill:#fff;fill-rule:nonzero;"/><path d="M367.792,497.048l-0,-46.566l9.712,5.715l0,46.566l-9.712,-5.715Z" style="fill:#fff;fill-rule:nonzero;"/><path d="M415.234,478.401l9.09,5.349l0,46.566l-7.222,-4.25l-21.853,-42.517l-0,29.657l-9.028,-5.313l-0,-46.566l7.16,4.214l21.853,42.385l0,-29.525Z" style="fill:#fff;fill-rule:nonzero;"/></g><g><path d="M792.872,313.603l4.535,2.352c1.592,0.852 2.765,1.068 3.521,0.648c0.756,-0.421 1.134,-1.496 1.134,-3.226l0,-31.717l9.369,5.513l-0,31.59c-0,8.399 -4.157,10.405 -12.472,6.019l-5.55,-2.95l-0.537,-8.229Z" style="fill:#fff;fill-rule:nonzero;"/><path d="M851.891,355.615l-3.998,-12.229l-19.574,-11.518l-3.998,7.523l-9.369,-5.514l19.335,-33.254l7.459,4.39l19.335,56.01l-9.19,-5.408Zm-20.528,-29.427l13.486,7.937l-6.743,-20.682l-6.743,12.745Z" style="fill:#fff;fill-rule:nonzero;"/><path d="M892.103,334.647l9.428,5.549l-18.917,33.499l-7.459,-4.389l-18.976,-55.8l9.667,5.69l13.128,40.076l13.129,-24.625Z" style="fill:#fff;fill-rule:nonzero;"/><path d="M933.568,403.681l-3.999,-12.229l-19.573,-11.519l-3.998,7.523l-9.369,-5.513l19.335,-33.254l7.459,4.39l19.335,56.01l-9.19,-5.408Zm-20.528,-29.427l13.486,7.937l-6.743,-20.682l-6.743,12.745Z" style="fill:#fff;fill-rule:nonzero;"/><path d="M960.548,420.128c-3.182,-1.873 -6.246,-4.129 -9.19,-6.769c-2.943,-2.64 -5.39,-5.335 -7.34,-8.086l2.984,-5.271c4.058,5.384 8.613,9.563 13.666,12.536c2.625,1.546 4.644,2.28 6.057,2.204c1.412,-0.077 2.118,-0.917 2.118,-2.52c0,-1.435 -0.646,-2.934 -1.939,-4.497c-1.293,-1.563 -3.591,-3.696 -6.893,-6.399c-3.7,-2.979 -6.653,-5.688 -8.861,-8.127c-2.208,-2.439 -3.82,-4.79 -4.834,-7.054c-1.015,-2.264 -1.522,-4.62 -1.522,-7.068c0,-2.701 0.706,-4.691 2.119,-5.971c1.412,-1.279 3.391,-1.77 5.937,-1.475c2.546,0.296 5.49,1.427 8.832,3.393c2.984,1.756 5.858,3.912 8.623,6.467c2.765,2.556 4.963,5.095 6.594,7.616l-2.984,5.271c-3.859,-5.267 -7.916,-9.153 -12.173,-11.658c-2.427,-1.429 -4.337,-2.056 -5.729,-1.884c-1.392,0.172 -2.089,1.124 -2.089,2.854c0,1.013 0.269,2.005 0.806,2.975c0.537,0.97 1.432,2.077 2.685,3.321c1.254,1.244 3.034,2.819 5.341,4.726c5.411,4.45 9.3,8.363 11.667,11.74c2.367,3.377 3.55,6.817 3.55,10.32c0,4.22 -1.531,6.642 -4.595,7.266c-3.063,0.625 -7.34,-0.679 -12.83,-3.91Z" style="fill:#fff;fill-rule:nonzero;"/><path d="M1004.41,445.94c-4.257,-2.505 -7.967,-5.638 -11.13,-9.398c-3.162,-3.761 -5.589,-7.869 -7.28,-12.324c-1.691,-4.456 -2.536,-8.963 -2.536,-13.521c-0,-4.559 0.845,-8.071 2.536,-10.536c1.691,-2.466 4.118,-3.708 7.28,-3.724c3.163,-0.017 6.873,1.227 11.13,3.732c2.785,1.639 5.45,3.661 7.996,6.067c2.546,2.406 4.635,4.89 6.266,7.454l-2.984,5.271c-1.83,-2.554 -3.65,-4.701 -5.46,-6.442c-1.81,-1.74 -3.69,-3.184 -5.639,-4.331c-3.74,-2.201 -6.614,-2.626 -8.623,-1.276c-2.009,1.35 -3.014,4.473 -3.014,9.368c0,4.896 1.005,9.212 3.014,12.948c2.009,3.735 4.883,6.703 8.623,8.904c1.949,1.147 3.829,1.916 5.639,2.306c1.81,0.39 3.63,0.385 5.46,-0.016l2.984,8.783c-1.631,0.644 -3.72,0.671 -6.266,0.08c-2.546,-0.591 -5.211,-1.706 -7.996,-3.345Z" style="fill:#fff;fill-rule:nonzero;"/><path d="M1061.64,479.049l-10.144,-5.97l-7.281,-18.529c-0.596,-1.448 -1.313,-2.661 -2.148,-3.638c-0.835,-0.977 -1.89,-1.84 -3.163,-2.589l-4.595,-2.704l0,17.346l-9.19,-5.408l0,-44.632l19.335,11.378c4.933,2.903 8.663,6.248 11.189,10.035c2.526,3.787 3.789,7.854 3.789,12.201c0,3.376 -0.885,5.683 -2.655,6.92c-1.771,1.237 -4.267,1.267 -7.489,0.088c2.188,1.878 4.038,4.634 5.549,8.267l6.803,17.235Zm-18.559,-35.738c2.666,1.568 4.595,2.208 5.789,1.918c1.193,-0.289 1.79,-1.489 1.79,-3.599c0,-2.153 -0.597,-4.066 -1.79,-5.739c-1.194,-1.673 -3.123,-3.294 -5.789,-4.862l-8.891,-5.233l-0,12.282l8.891,5.233Z" style="fill:#fff;fill-rule:nonzero;"/><path d="M1066.95,482.175l-0,-44.632l9.309,5.478l0,44.632l-9.309,-5.478Z" style="fill:#fff;fill-rule:nonzero;"/><path d="M1084.61,447.938l19.335,11.378c4.575,2.692 8.135,6.012 10.681,9.958c2.547,3.946 3.82,8.114 3.82,12.503c-0,4.39 -1.273,7.059 -3.82,8.009c-2.546,0.949 -6.106,0.078 -10.681,-2.615l-10.026,-5.899l0,16.776l-9.309,-5.478l0,-44.632Zm18.141,31.061c4.655,2.739 6.982,1.977 6.982,-2.285c0,-2.195 -0.577,-4.16 -1.73,-5.894c-1.154,-1.734 -2.905,-3.291 -5.252,-4.673l-8.832,-5.197l0,12.851l8.832,5.198Z" style="fill:#fff;fill-rule:nonzero;"/><path d="M1133.5,521.338l0,-36.592l-13.188,-7.761l-0,-8.04l35.685,21l0,8.041l-13.188,-7.761l0,36.591l-9.309,-5.478Z" style="fill:#fff;fill-rule:nonzero;"/></g><g><path d="M406.779,377.782l-0,14.332c-1.331,-0.091 -2.898,-0.472 -4.699,-1.145c-1.801,-0.672 -3.655,-1.569 -5.561,-2.69c-2.924,-1.721 -5.456,-3.814 -7.597,-6.278c-2.14,-2.465 -3.785,-5.164 -4.934,-8.097c-1.148,-2.933 -1.723,-5.95 -1.723,-9.052c0,-3.047 0.568,-5.364 1.704,-6.953c1.135,-1.589 2.761,-2.371 4.875,-2.345c2.115,0.026 4.582,0.868 7.401,2.528c1.984,1.167 3.831,2.545 5.541,4.133c1.71,1.588 3.126,3.224 4.249,4.91l-1.919,3.482c-1.279,-1.722 -2.526,-3.155 -3.74,-4.299c-1.213,-1.144 -2.525,-2.13 -3.935,-2.96c-5.326,-3.134 -7.988,-1.419 -7.988,5.145c-0,3.379 0.691,6.306 2.075,8.782c1.384,2.476 3.472,4.536 6.265,6.18c1.515,0.891 3.016,1.566 4.504,2.027l-0,-6.44l-5.404,-3.18l-0,-4.486l10.886,6.406Z" style="fill:#fff;fill-rule:nonzero;"/><path d="M435.913,411.087l-6.657,-3.917l-4.777,-12.159c-0.392,-0.95 -0.862,-1.746 -1.41,-2.387c-0.548,-0.641 -1.24,-1.208 -2.075,-1.699l-3.016,-1.775l0,11.383l-6.03,-3.549l-0,-29.288l12.688,7.467c3.237,1.905 5.684,4.1 7.342,6.585c1.658,2.485 2.486,5.153 2.486,8.006c0,2.216 -0.58,3.729 -1.742,4.541c-1.162,0.812 -2.8,0.831 -4.915,0.058c1.436,1.233 2.65,3.041 3.642,5.425l4.464,11.309Zm-12.178,-23.451c1.749,1.029 3.015,1.449 3.798,1.259c0.783,-0.19 1.175,-0.978 1.175,-2.362c0,-1.413 -0.392,-2.668 -1.175,-3.766c-0.783,-1.098 -2.049,-2.161 -3.798,-3.191l-5.835,-3.433l0,8.059l5.835,3.434Z" style="fill:#fff;fill-rule:nonzero;"/><path d="M451.932,420.888c-2.741,-1.613 -5.124,-3.631 -7.147,-6.054c-2.023,-2.423 -3.583,-5.086 -4.679,-7.989c-1.097,-2.902 -1.645,-5.876 -1.645,-8.923c0,-3.046 0.548,-5.376 1.645,-6.988c1.096,-1.612 2.656,-2.431 4.679,-2.459c2.023,-0.028 4.406,0.764 7.147,2.377c2.741,1.613 5.123,3.625 7.146,6.034c2.024,2.409 3.583,5.065 4.68,7.967c1.096,2.903 1.645,5.877 1.645,8.924c-0,3.046 -0.549,5.375 -1.645,6.987c-1.097,1.612 -2.656,2.439 -4.68,2.481c-2.023,0.042 -4.405,-0.744 -7.146,-2.357Zm-0,-5.027c2.297,1.352 4.105,1.558 5.423,0.616c1.319,-0.941 1.978,-3.032 1.978,-6.272c-0,-3.241 -0.653,-6.096 -1.958,-8.568c-1.305,-2.471 -3.12,-4.391 -5.443,-5.758c-2.324,-1.367 -4.132,-1.58 -5.424,-0.637c-1.292,0.943 -1.938,3.035 -1.938,6.275c-0,3.24 0.653,6.103 1.958,8.588c1.305,2.486 3.106,4.404 5.404,5.756Z" style="fill:#fff;fill-rule:nonzero;"/><path d="M482.75,439.024c-2.741,-1.613 -5.123,-3.631 -7.147,-6.054c-2.023,-2.423 -3.583,-5.086 -4.679,-7.989c-1.097,-2.902 -1.645,-5.876 -1.645,-8.923c0,-3.046 0.548,-5.376 1.645,-6.988c1.096,-1.611 2.656,-2.431 4.679,-2.459c2.024,-0.028 4.406,0.764 7.147,2.377c2.741,1.613 5.123,3.625 7.147,6.034c2.023,2.409 3.583,5.065 4.679,7.967c1.096,2.903 1.645,5.877 1.645,8.924c-0,3.046 -0.549,5.375 -1.645,6.987c-1.096,1.612 -2.656,2.439 -4.679,2.481c-2.024,0.042 -4.406,-0.744 -7.147,-2.357Zm-0,-5.027c2.297,1.352 4.105,1.558 5.424,0.616c1.318,-0.941 1.977,-3.032 1.977,-6.272c0,-3.241 -0.653,-6.096 -1.958,-8.568c-1.305,-2.471 -3.12,-4.391 -5.443,-5.758c-2.323,-1.367 -4.131,-1.579 -5.424,-0.637c-1.292,0.943 -1.938,3.035 -1.938,6.275c0,3.24 0.653,6.103 1.958,8.588c1.305,2.486 3.107,4.404 5.404,5.756Z" style="fill:#fff;fill-rule:nonzero;"/><path d="M520.47,431.56l6.187,3.641l-12.414,21.982l-4.895,-2.88l-12.452,-36.616l6.344,3.733l8.615,26.298l8.615,-16.158Z" style="fill:#fff;fill-rule:nonzero;"/><path d="M553.589,451.05l-11.435,9.306l0,13.253l-6.108,-3.595l-0,-13.253l-11.396,-22.741l6.931,4.079l7.48,15.244l7.597,-6.372l6.931,4.079Z" style="fill:#fff;fill-rule:nonzero;"/></g><g><path d="M996.492,994.743l2.868,1.488c1.006,0.538 1.747,0.675 2.225,0.409c0.478,-0.266 0.717,-0.946 0.717,-2.04l0,-20.05l5.923,3.485l-0,19.971c-0,5.309 -2.628,6.578 -7.885,3.804l-3.508,-1.864l-0.34,-5.203Z" style="fill:#fff;fill-rule:nonzero;"/><path d="M1033.8,1021.3l-2.528,-7.73l-12.374,-7.282l-2.527,4.756l-5.923,-3.486l12.223,-21.022l4.715,2.775l12.223,35.408l-5.809,-3.419Zm-12.978,-18.602l8.526,5.017l-4.263,-13.074l-4.263,8.057Z" style="fill:#fff;fill-rule:nonzero;"/><path d="M1059.22,1008.05l5.96,3.508l-11.959,21.177l-4.715,-2.775l-11.997,-35.275l6.112,3.597l8.299,25.335l8.3,-15.567Z" style="fill:#fff;fill-rule:nonzero;"/><path d="M1085.44,1051.69l-2.528,-7.731l-12.374,-7.282l-2.527,4.756l-5.923,-3.486l12.223,-21.022l4.716,2.775l12.222,35.408l-5.809,-3.418Zm-12.978,-18.603l8.526,5.017l-4.263,-13.074l-4.263,8.057Z" style="fill:#fff;fill-rule:nonzero;"/></g><g><path d="M224.581,564.275l12.436,7.319c2.943,1.732 5.234,3.867 6.871,6.405c1.638,2.539 2.457,5.22 2.457,8.043c-0,2.824 -0.819,4.541 -2.457,5.151c-1.637,0.611 -3.928,0.051 -6.871,-1.681l-6.448,-3.795l-0,10.791l-5.988,-3.524l-0,-28.709Zm11.669,19.98c2.994,1.762 4.491,1.272 4.491,-1.47c-0,-1.412 -0.371,-2.675 -1.113,-3.791c-0.743,-1.115 -1.869,-2.117 -3.378,-3.006l-5.681,-3.343l-0,8.267l5.681,3.343Z" style="fill:#fff;fill-rule:nonzero;"/><path d="M273.944,593.325l-11.209,9.123l0,12.99l-5.988,-3.524l0,-12.99l-11.17,-22.293l6.794,3.999l7.332,14.943l7.447,-6.246l6.794,3.998Z" style="fill:#fff;fill-rule:nonzero;"/><path d="M281.497,626.479l-0,-23.538l-8.483,-4.992l-0,-5.172l22.954,13.509l-0,5.171l-8.483,-4.992l-0,23.537l-5.988,-3.523Z" style="fill:#fff;fill-rule:nonzero;"/><path d="M317.464,618.936l5.873,3.456l-0,28.709l-5.873,-3.456l-0,-12.054l-12.476,-7.342l0,12.054l-5.873,-3.456l0,-28.709l5.873,3.456l0,11.606l12.476,7.341l-0,-11.605Z" style="fill:#fff;fill-rule:nonzero;"/><path d="M341.147,661.949c-2.687,-1.582 -5.022,-3.56 -7.005,-5.935c-1.983,-2.375 -3.512,-4.985 -4.587,-7.83c-1.075,-2.846 -1.612,-5.761 -1.612,-8.747c-0,-2.987 0.537,-5.27 1.612,-6.85c1.075,-1.58 2.604,-2.384 4.587,-2.411c1.983,-0.028 4.318,0.749 7.005,2.331c2.687,1.581 5.022,3.552 7.006,5.914c1.983,2.361 3.512,4.965 4.587,7.81c1.074,2.845 1.612,5.761 1.612,8.747c-0,2.986 -0.538,5.269 -1.612,6.849c-1.075,1.58 -2.604,2.391 -4.587,2.432c-1.984,0.041 -4.319,-0.729 -7.006,-2.31Zm0,-4.928c2.252,1.325 4.024,1.527 5.317,0.604c1.292,-0.923 1.938,-2.972 1.938,-6.148c0,-3.177 -0.64,-5.976 -1.919,-8.399c-1.28,-2.422 -3.058,-4.304 -5.336,-5.644c-2.277,-1.34 -4.049,-1.548 -5.316,-0.624c-1.267,0.924 -1.9,2.974 -1.9,6.15c-0,3.177 0.64,5.983 1.919,8.419c1.28,2.436 3.045,4.317 5.297,5.642Z" style="fill:#fff;fill-rule:nonzero;"/><path d="M376.807,653.858l5.604,3.298l0,28.709l-4.452,-2.62l-13.473,-26.213l-0,18.284l-5.566,-3.275l-0,-28.709l4.414,2.598l13.473,26.131l0,-18.203Z" style="fill:#fff;fill-rule:nonzero;"/></g><g><path d="M1137.18,697.401c2.488,2.243 4.415,4.729 5.781,7.458c1.366,2.729 2.049,5.5 2.049,8.312c0,3.85 -1.336,6.115 -4.007,6.792c-2.671,0.678 -6.351,-0.363 -11.041,-3.123l-20.493,-12.059l0,-45.752l19.881,11.7c4.486,2.639 8.044,5.793 10.675,9.461c2.63,3.668 3.945,7.341 3.945,11.018c0,2.38 -0.601,4.113 -1.804,5.201c-1.203,1.087 -2.865,1.418 -4.986,0.992Zm-18.413,-14.275l8.993,5.292c2.447,1.44 4.251,2.058 5.413,1.855c1.163,-0.203 1.744,-1.213 1.744,-3.03c-0,-1.903 -0.581,-3.641 -1.744,-5.212c-1.162,-1.57 -2.966,-3.076 -5.413,-4.516l-8.993,-5.292l0,10.903Zm10.094,25.344c2.528,1.488 4.363,2.113 5.505,1.877c1.142,-0.237 1.713,-1.372 1.713,-3.405c0,-2.034 -0.571,-3.862 -1.713,-5.486c-1.142,-1.624 -2.977,-3.18 -5.505,-4.668l-10.094,-5.939l0,11.681l10.094,5.94Z" style="fill:#fff;fill-rule:nonzero;"/><path d="M1184.53,748.951l-4.098,-12.536l-20.065,-11.807l-4.098,7.712l-9.604,-5.652l19.819,-34.088l7.647,4.5l19.82,57.415l-9.421,-5.544Zm-21.043,-30.165l13.825,8.136l-6.913,-21.201l-6.912,13.065Z" style="fill:#fff;fill-rule:nonzero;"/><path d="M1212.18,765.811c-3.262,-1.92 -6.403,-4.233 -9.42,-6.939c-3.018,-2.706 -5.526,-5.469 -7.525,-8.289l3.059,-5.404c4.16,5.52 8.829,9.804 14.008,12.852c2.692,1.584 4.762,2.336 6.209,2.258c1.448,-0.078 2.172,-0.939 2.172,-2.583c-0,-1.471 -0.663,-3.008 -1.988,-4.61c-1.326,-1.601 -3.681,-3.788 -7.065,-6.559c-3.793,-3.053 -6.821,-5.83 -9.085,-8.331c-2.263,-2.5 -3.915,-4.91 -4.954,-7.231c-1.04,-2.321 -1.56,-4.736 -1.56,-7.245c-0,-2.769 0.724,-4.809 2.171,-6.121c1.448,-1.311 3.477,-1.815 6.087,-1.512c2.61,0.303 5.628,1.462 9.053,3.478c3.059,1.8 6.005,4.01 8.84,6.63c2.834,2.62 5.087,5.222 6.759,7.807l-3.058,5.403c-3.956,-5.4 -8.116,-9.383 -12.48,-11.951c-2.487,-1.464 -4.445,-2.108 -5.872,-1.931c-1.427,0.177 -2.141,1.152 -2.141,2.926c-0,1.038 0.275,2.054 0.826,3.049c0.55,0.995 1.468,2.13 2.753,3.405c1.284,1.275 3.109,2.89 5.474,4.844c5.547,4.562 9.533,8.573 11.959,12.035c2.427,3.461 3.64,6.987 3.64,10.578c0,4.327 -1.57,6.81 -4.71,7.449c-3.14,0.64 -7.524,-0.696 -13.152,-4.008Z" style="fill:#fff;fill-rule:nonzero;"/><path d="M1266.14,751.226l9.359,5.508l-0,45.752l-9.359,-5.508l-0,-19.209l-19.881,-11.7l-0,19.209l-9.36,-5.507l0,-45.752l9.36,5.508l-0,18.495l19.881,11.7l-0,-18.496Z" style="fill:#fff;fill-rule:nonzero;"/></g></g></g></g><defs><radialGradient id="_Radial1" cx="0" cy="0" r="1" gradientUnits="userSpaceOnUse" gradientTransform="matrix(5.36884e-14,876.798,-898.594,5.5023e-14,764.508,657.406)"><stop offset="0" style="stop-color:#5eb6e4;stop-opacity:1"/><stop offset="0.58" style="stop-color:#1e3a48;stop-opacity:0.32"/><stop offset="1" style="stop-color:#000;stop-opacity:0"/></radialGradient><linearGradient id="_Linear2" x1="0" y1="0" x2="1" y2="0" gradientUnits="userSpaceOnUse" gradientTransform="matrix(525.557,90.8041,-90.8041,525.557,438.8,789.343)"><stop offset="0" style="stop-color:#500071;stop-opacity:1"/><stop offset="0.41" style="stop-color:#55007a;stop-opacity:1"/><stop offset="0.55" style="stop-color:#62008f;stop-opacity:1"/><stop offset="0.66" style="stop-color:#7000a6;stop-opacity:1"/><stop offset="0.72" style="stop-color:#62008f;stop-opacity:1"/><stop offset="0.79" style="stop-color:#55007a;stop-opacity:1"/><stop offset="1" style="stop-color:#500071;stop-opacity:1"/></linearGradient><linearGradient id="_Linear3" x1="0" y1="0" x2="1" y2="0" gradientUnits="userSpaceOnUse" gradientTransform="matrix(-228.415,186.324,-186.324,-228.415,797.615,654.265)"><stop offset="0" style="stop-color:#9b59b6;stop-opacity:1"/><stop offset="1" style="stop-color:#7c2ba1;stop-opacity:1"/></linearGradient><linearGradient id="_Linear4" x1="0" y1="0" x2="1" y2="0" gradientUnits="userSpaceOnUse" gradientTransform="matrix(185.277,-113.24,113.24,185.277,597.094,842.498)"><stop offset="0" style="stop-color:#500071;stop-opacity:1"/><stop offset="1" style="stop-color:#500071;stop-opacity:1"/></linearGradient><linearGradient id="_Linear5" x1="0" y1="0" x2="1" y2="0" gradientUnits="userSpaceOnUse" gradientTransform="matrix(-157.229,97.8803,-97.8803,-157.229,740.349,678.368)"><stop offset="0" style="stop-color:#f3d5ff;stop-opacity:1"/><stop offset="1" style="stop-color:#da7eff;stop-opacity:1"/></linearGradient><linearGradient id="_Linear6" x1="0" y1="0" x2="1" y2="0" gradientUnits="userSpaceOnUse" gradientTransform="matrix(334.148,395.273,-395.273,334.148,703.674,306.768)"><stop offset="0" style="stop-color:#f3c9ff;stop-opacity:1"/><stop offset="0.47" style="stop-color:#f1ceff;stop-opacity:1"/><stop offset="0.61" style="stop-color:#ecdaff;stop-opacity:1"/><stop offset="0.74" style="stop-color:#e7e8ff;stop-opacity:1"/><stop offset="0.79" style="stop-color:#e2bdff;stop-opacity:1"/><stop offset="0.85" style="stop-color:#dc92ff;stop-opacity:1"/><stop offset="1" style="stop-color:#da7eff;stop-opacity:1"/></linearGradient><linearGradient id="_Linear7" x1="0" y1="0" x2="1" y2="0" gradientUnits="userSpaceOnUse" gradientTransform="matrix(100.804,361.13,-361.13,100.804,650.699,323.067)"><stop offset="0" style="stop-color:#9b59b6;stop-opacity:1"/><stop offset="1" style="stop-color:#7c2ba1;stop-opacity:1"/></linearGradient><linearGradient id="_Linear8" x1="0" y1="0" x2="1" y2="0" gradientUnits="userSpaceOnUse" gradientTransform="matrix(-281.086,-426.486,426.486,-281.086,920.64,765.853)"><stop offset="0" style="stop-color:#500071;stop-opacity:1"/><stop offset="0.4" style="stop-color:#550079;stop-opacity:1"/><stop offset="0.52" style="stop-color:#62008e;stop-opacity:1"/><stop offset="0.63" style="stop-color:#7000a6;stop-opacity:1"/><stop offset="0.7" style="stop-color:#62008f;stop-opacity:1"/><stop offset="0.77" style="stop-color:#55007a;stop-opacity:1"/><stop offset="1" style="stop-color:#500071;stop-opacity:1"/></linearGradient><linearGradient id="_Linear9" x1="0" y1="0" x2="1" y2="0" gradientUnits="userSpaceOnUse" gradientTransform="matrix(408.136,486.807,-486.807,408.136,724.44,428.16)"><stop offset="0" style="stop-color:#232323;stop-opacity:1"/><stop offset="1" style="stop-color:#000;stop-opacity:1"/></linearGradient></defs></svg>